HIERARCHY
ROOT root
{
	OFFSET 0.000000 0.000000 0.000000
	CHANNELS 6 Xposition Yposition Zposition Zrotation Yrotation Xrotation
	JOINT lhip
	{
		OFFSET 0.058581 -0.082280 -0.017664
		CHANNELS 3 Zrotation Yrotation Xrotation
		JOINT lknee
		{
			OFFSET 0.043451 -0.386469 0.008037
			CHANNELS 3 Zrotation Yrotation Xrotation
			JOINT lankle
			{
				OFFSET -0.014790 -0.426874 -0.037428
				CHANNELS 3 Zrotation Yrotation Xrotation
				JOINT ltoe
				{
					OFFSET 0.041054 -0.060286 0.122042
					CHANNELS 3 Zrotation Yrotation Xrotation
					End Site
					{
						OFFSET 0.000000 0.000000 0.000000
					}
				}
			}
		}
	}
	JOINT rhip
	{
		OFFSET -0.060310 -0.090513 -0.013543
		CHANNELS 3 Zrotation Yrotation Xrotation
		JOINT rknee
		{
			OFFSET -0.043257 -0.383688 -0.004843
			CHANNELS 3 Zrotation Yrotation Xrotation
			JOINT rankle
			{
				OFFSET 0.019056 -0.420046 -0.034562
				CHANNELS 3 Zrotation Yrotation Xrotation
				JOINT rtoe
				{
					OFFSET -0.034840 -0.062106 0.130323
					CHANNELS 3 Zrotation Yrotation Xrotation
					End Site
					{
						OFFSET 0.000000 0.000000 0.000000
					}
				}
			}
		}
	}
	JOINT lowerback
	{
		OFFSET 0.004439 0.124404 -0.038385
		CHANNELS 3 Zrotation Yrotation Xrotation
		JOINT upperback
		{
			OFFSET 0.004488 0.137956 0.026820
			CHANNELS 3 Zrotation Yrotation Xrotation
			JOINT chest
			{
				OFFSET -0.002265 0.056032 0.002855
				CHANNELS 3 Zrotation Yrotation Xrotation
				JOINT lowerneck
				{
					OFFSET -0.013390 0.211636 -0.033468
					CHANNELS 3 Zrotation Yrotation Xrotation
					JOINT upperneck
					{
						OFFSET 0.010113 0.088937 0.050410
						CHANNELS 3 Zrotation Yrotation Xrotation
						End Site
						{
							OFFSET 0.000000 0.000000 0.000000
						}
					}
				}
				JOINT lclavicle
				{
					OFFSET 0.071702 0.114000 -0.018898
					CHANNELS 3 Zrotation Yrotation Xrotation
					JOINT lshoulder
					{
						OFFSET 0.122921 0.045205 -0.019046
						CHANNELS 3 Zrotation Yrotation Xrotation
						JOINT lelbow
						{
							OFFSET 0.255332 -0.015649 -0.022946
							CHANNELS 3 Zrotation Yrotation Xrotation
							JOINT lwrist
							{
								OFFSET 0.265709 0.012698 -0.007375
								CHANNELS 3 Zrotation Yrotation Xrotation
								End Site
								{
									OFFSET 0.000000 0.000000 0.000000
								}
							}
						}
					}
				}
				JOINT rclavicle
				{
					OFFSET -0.082954 0.112472 -0.023707
					CHANNELS 3 Zrotation Yrotation Xrotation
					JOINT rshoulder
					{
						OFFSET -0.113228 0.046853 -0.008472
						CHANNELS 3 Zrotation Yrotation Xrotation
						JOINT relbow
						{
							OFFSET -0.260127 -0.014369 -0.031269
							CHANNELS 3 Zrotation Yrotation Xrotation
							JOINT rwrist
							{
								OFFSET -0.269108 0.006794 -0.006027
								CHANNELS 3 Zrotation Yrotation Xrotation
								End Site
								{
									OFFSET 0.000000 0.000000 0.000000
								}
							}
						}
					}
				}
			}
		}
	}
}
MOTION
Frames: 8
Frame Time: 0.033333
0.141587 -0.611157 1.007796 11.459411 7.728532 88.605105 -2.965448 0.096403 -18.717089 -2.782494 14.508339 18.736215 9.791415 18.612684 2.814050 0.000000 -0.000000 0.000000 11.146819 -2.243691 -6.156230 7.742282 -10.015343 37.354624 7.355387 -3.193730 12.168553 0.000000 -0.000000 0.000000 -4.095889 5.136329 18.401148 3.624915 -3.903782 3.786119 1.193240 0.778172 2.017270 -3.050843 -5.939039 7.072940 6.993632 -13.706073 -0.170971 -18.089803 -4.328903 -0.726087 -35.911836 -5.677125 0.291971 12.764157 -12.778682 -12.119357 22.630812 -4.567029 5.132171 24.473205 5.623335 -0.399398 48.578567 5.201612 11.141434 -15.126198 29.629493 5.385995 -12.270576 7.727223 11.531005 
0.145255 -0.590336 0.993609 10.267562 6.424796 90.039400 -5.302960 0.249746 -20.867882 -1.983708 17.228437 17.186109 10.465646 17.404659 0.941287 0.000000 -0.000000 0.000000 12.115319 -1.990543 -5.385587 6.641862 -6.190856 33.078257 4.525104 -2.500497 4.077254 0.000000 -0.000000 0.000000 -4.020283 5.107611 17.337155 3.514569 -4.063821 3.504805 1.130185 0.710180 2.557153 -3.472990 -9.270646 4.794284 6.616118 -17.659389 -1.514603 -18.896133 -3.942550 -1.261132 -40.990755 -7.336313 3.019226 11.565935 -15.311003 -10.818188 21.705614 -3.479331 0.274770 24.888314 6.080863 -0.971772 49.205117 7.342776 11.655723 -15.638634 29.267378 4.166875 -11.931302 7.282770 11.364326 
0.149471 -0.569222 0.976394 9.238549 5.237143 90.135156 -5.654404 -1.219872 -23.241339 -2.750306 15.745435 19.304944 9.403749 16.311478 -1.809186 0.000000 -0.000000 0.000000 12.171870 -0.849667 -4.048506 5.438808 -2.601004 30.457065 1.711294 -2.292025 -7.887015 0.000000 -0.000000 0.000000 -3.163154 5.150005 18.111388 3.295996 -4.328686 2.855053 0.869773 0.560524 3.514225 -3.409601 -11.807462 1.308078 6.010661 -21.528732 -2.245273 -20.142043 -4.978259 -1.496329 -45.521726 -8.600547 5.504069 10.951464 -18.552324 -8.655702 18.984617 -3.058997 -4.089078 25.005625 7.980982 -1.280040 49.036490 9.057711 11.290847 -15.839225 29.153640 4.446802 -11.136304 7.019683 11.372189 
0.152810 -0.546856 0.965000 8.318410 4.340600 89.386832 -4.365773 -2.235395 -26.352339 -4.622795 15.664501 24.142590 7.051970 14.555927 -1.960123 0.000000 -0.000000 0.000000 12.101925 0.264440 -3.539639 4.961004 -0.541346 29.219122 -1.153324 -5.748096 -14.420924 0.000000 -0.000000 0.000000 -1.939646 5.297559 20.580875 3.046692 -4.394407 2.160489 0.500072 0.342837 4.394831 -2.948741 -14.538284 -3.119387 5.822031 -25.094661 -1.862886 -21.021376 -6.908857 -1.561332 -49.614750 -10.193305 7.966510 11.105924 -22.549294 -3.688343 16.159472 -3.524473 -5.619198 24.588423 10.495001 -1.577150 48.531123 10.694223 10.683368 -15.750999 28.713141 6.246033 -9.661969 7.043356 12.773264 
0.155493 -0.523627 0.964776 8.108220 3.585342 89.430568 -2.577147 -2.462764 -30.191275 -6.622429 16.363733 29.001273 1.101458 9.938337 0.016973 0.000000 -0.000000 0.000000 11.569863 0.077322 -4.792646 3.184278 -1.378862 28.755271 -2.019735 -5.968043 -16.881875 0.000000 -0.000000 0.000000 -0.798478 5.415461 23.623211 2.891700 -4.620457 1.712848 0.252650 0.159204 3.346345 -2.667026 -17.061082 -5.298317 7.632200 -27.978002 -3.370440 -21.859163 -8.968642 -1.251547 -52.547398 -11.306788 10.708511 11.237732 -28.248592 1.927402 14.628992 -5.040231 -4.148943 23.456182 12.285904 -1.537337 47.866882 11.134083 9.991494 -15.208174 29.588395 8.919190 -7.966446 6.526912 13.779544 
0.157994 -0.503203 0.972053 8.953585 2.451068 90.030665 -1.355942 -2.705493 -32.796827 -11.180490 10.915622 31.815941 -8.336583 0.542743 0.474426 0.000000 -0.000000 0.000000 9.791618 -0.662595 -5.857300 2.405420 -2.700492 26.679714 -1.350985 -3.858999 -16.632910 0.000000 -0.000000 0.000000 -0.698557 5.384351 25.129323 3.058054 -5.187583 2.677090 0.235422 -0.114019 2.065683 -1.244797 -18.527609 -5.994346 9.928881 -30.048264 -6.842942 -22.803144 -10.612498 -0.893482 -53.295895 -12.479698 13.664518 10.256828 -35.648633 6.996207 14.453390 -7.423818 -2.992436 23.109089 13.399034 -1.462220 46.069602 11.004495 9.160743 -15.185166 31.209295 9.858563 -7.460809 6.465761 13.577754 
0.158831 -0.486444 0.983176 9.826689 1.354377 91.070623 -0.213866 -3.157253 -34.577917 -17.457471 1.488344 34.960041 -10.421667 -7.116078 -1.533643 0.000000 -0.000000 0.000000 8.026408 -1.996339 -7.471745 2.547093 -2.313804 25.120786 0.522308 -2.026390 -13.653227 0.000000 -0.000000 0.000000 -1.570017 5.432986 25.740543 3.416527 -5.781012 2.572381 0.561665 -0.581929 1.819364 0.737740 -19.131958 -6.255829 11.429693 -31.342939 -8.499714 -22.217008 -11.116447 -0.660208 -53.032453 -13.322075 16.214094 7.707104 -43.907559 15.521761 13.934211 -10.694515 -1.987110 22.414920 13.293357 -1.725598 44.978076 10.485720 8.027867 -15.202717 32.867648 11.755063 -6.551896 6.931818 13.903116 
0.158827 -0.473005 0.996468 9.928338 0.810864 92.043090 0.395028 -3.094592 -35.764336 -17.686494 -3.465054 41.908014 -7.072813 -3.855222 -4.966084 0.000000 -0.000000 0.000000 7.238389 -1.869834 -9.073369 2.716869 0.402057 24.348955 2.667810 -0.891539 -10.426739 0.000000 -0.000000 0.000000 -2.157119 5.344503 25.891534 3.611124 -5.930123 1.850499 0.629558 -1.045064 2.230051 2.152254 -19.736361 -6.755050 12.327267 -32.521663 -8.073705 -21.003255 -11.080506 -0.488984 -50.653709 -13.538830 17.725924 3.698851 -52.689537 25.209862 14.305037 -13.702743 0.745996 22.103756 12.856507 -1.763424 43.606611 9.024895 7.401774 -15.273499 34.017490 13.241984 -7.379067 7.667804 15.113415 
